<svg id="svg" xmlns="http://www.w3.org/2000/svg" xmlns:xlink="http://www.w3.org/1999/xlink" width="400" height="400" viewBox="0, 0, 400,400"><g id="svgg"><path id="path0" d="M193.441 1.501 C 189.135 4.341,188.109 7.048,187.683 16.698 L 187.295 25.493 181.343 26.373 C 138.706 32.680,101.839 66.552,91.028 109.353 C 87.721 122.446,87.500 127.331,87.500 187.490 L 87.500 244.942 76.092 256.260 C 61.715 270.523,62.499 268.574,62.502 290.014 C 62.507 326.879,68.180 345.558,85.542 365.873 C 98.233 380.723,106.363 378.301,121.677 355.107 C 132.661 338.470,136.676 321.098,136.703 290.090 C 136.722 268.785,137.563 270.898,123.383 256.612 L 111.719 244.859 111.719 226.206 L 111.719 207.553 117.681 213.971 C 133.419 230.911,156.834 243.938,178.160 247.618 C 180.934 248.097,184.170 248.681,185.352 248.916 L 187.500 249.343 187.500 259.973 L 187.500 270.603 175.512 282.762 C 161.628 296.845,162.518 294.756,162.515 313.281 C 162.509 351.370,168.759 371.237,187.473 392.624 C 196.603 403.056,203.395 403.059,212.518 392.633 C 231.144 371.349,237.507 351.127,237.489 313.281 C 237.480 294.712,238.427 296.898,224.098 282.373 L 211.719 269.824 211.719 259.592 L 211.719 249.360 217.383 248.464 C 242.078 244.556,266.118 231.685,282.762 213.460 L 288.276 207.422 288.279 226.122 L 288.281 244.821 276.238 257.014 C 261.850 271.579,262.989 268.066,263.512 296.265 C 264.001 322.695,265.591 330.523,273.755 346.694 C 288.662 376.221,300.747 381.916,314.458 365.873 C 331.820 345.558,337.493 326.879,337.498 290.014 C 337.501 268.574,338.285 270.523,323.908 256.260 L 312.500 244.942 312.500 187.490 C 312.500 151.981,312.186 127.509,311.678 123.417 C 305.549 74.089,266.882 33.847,218.359 26.299 L 212.109 25.327 211.719 15.984 C 211.298 5.909,210.692 4.227,206.488 1.455 C 203.477 -0.531,196.486 -0.506,193.441 1.501 M166.808 59.521 C 162.843 68.183,161.494 75.224,161.431 87.585 L 161.373 98.997 152.757 98.625 C 142.529 98.183,133.050 99.708,124.304 103.203 C 117.362 105.976,117.406 106.004,119.859 100.458 C 127.283 83.670,143.566 66.983,161.076 58.217 C 169.438 54.031,169.333 54.007,166.808 59.521 M203.922 58.398 C 218.257 74.649,217.656 102.231,202.641 117.188 L 199.896 119.922 196.372 116.068 C 181.901 100.246,182.070 72.949,196.734 57.617 C 200.225 53.967,199.990 53.941,203.922 58.398 M242.188 59.887 C 257.855 68.458,273.270 84.920,280.108 100.383 C 282.602 106.022,282.536 106.551,279.538 105.001 C 270.855 100.511,258.347 98.070,246.680 98.589 L 238.627 98.947 238.569 87.559 C 238.506 75.235,237.154 68.176,233.203 59.546 C 232.129 57.200,231.250 55.142,231.250 54.973 C 231.250 54.452,236.858 56.972,242.188 59.887 M164.156 125.185 C 170.409 127.472,175.023 130.127,179.614 134.083 L 183.056 137.049 178.986 140.695 C 162.706 155.276,136.791 155.213,120.313 140.552 L 116.797 137.424 120.750 133.751 C 131.857 123.430,149.719 119.905,164.156 125.185 M261.261 124.202 C 268.720 126.109,274.100 128.965,279.250 133.751 L 283.203 137.424 279.688 140.552 C 263.272 155.157,237.664 155.291,221.165 140.858 L 217.100 137.303 218.902 135.384 C 228.511 125.146,246.444 120.412,261.261 124.202 M204.240 159.039 C 216.899 174.579,217.863 196.107,206.636 212.575 C 200.665 221.334,200.461 221.418,196.418 216.797 C 181.952 200.259,181.975 174.779,196.471 158.008 C 200.079 153.834,199.990 153.822,204.240 159.039 M134.062 174.277 C 139.966 175.641,143.126 175.889,151.728 175.664 L 162.203 175.391 161.499 179.688 C 160.007 188.782,162.212 203.712,166.667 214.673 C 167.752 217.345,168.482 219.531,168.287 219.531 C 167.069 219.531,157.070 214.438,152.597 211.539 C 137.961 202.054,126.130 188.224,119.207 172.509 L 117.250 168.064 122.061 170.340 C 124.707 171.591,130.108 173.363,134.062 174.277 M280.814 172.461 C 274.165 187.554,262.439 201.507,248.742 210.625 C 243.537 214.090,233.132 219.531,231.713 219.531 C 231.518 219.531,232.248 217.345,233.333 214.673 C 237.787 203.712,239.993 188.784,238.502 179.688 L 237.798 175.391 249.954 175.391 C 263.267 175.391,268.863 174.358,277.734 170.266 C 280.313 169.076,282.505 168.073,282.607 168.036 C 282.709 167.999,281.902 169.990,280.814 172.461 M112.274 296.875 C 111.815 318.425,108.323 332.257,100.862 342.092 L 99.453 343.949 96.550 339.170 C 89.500 327.564,86.727 314.754,86.722 293.766 L 86.719 280.111 93.147 273.649 L 99.576 267.187 106.104 273.632 L 112.633 280.078 112.274 296.875 M313.068 297.266 C 312.687 317.647,311.704 322.428,305.292 335.090 C 300.263 345.021,300.516 344.992,295.889 336.173 C 289.732 324.440,288.165 316.944,287.697 296.989 L 287.305 280.306 293.831 273.747 L 300.357 267.187 306.873 273.632 L 313.390 280.078 313.068 297.266 M206.978 299.556 L 213.532 306.144 213.005 321.236 C 212.272 342.224,210.165 351.717,203.716 363.086 C 199.838 369.921,200.205 369.881,196.682 363.858 C 189.974 352.391,187.615 341.973,186.944 320.841 L 186.476 306.136 193.026 299.552 C 200.889 291.647,199.110 291.647,206.978 299.556 " stroke="none" fill="#000000" fill-rule="evenodd"></path></g></svg>